<svg width="1792" height="244" viewBox="0 0 1792 244" fill="none" xmlns="http://www.w3.org/2000/svg">
<g opacity="0.75" clip-path="url(#clip0_108_598)">
<rect x="866.028" y="31" width="268.833" height="183" rx="91.5" stroke="#006283" stroke-width="6"/>
<path d="M1097.39 -18C1154.18 -18 1213.16 41.2936 1213.16 114.766C1213.16 188.239 1170.56 263 1097.39 263" stroke="#006283" stroke-width="7"/>
<path d="M1213.16 -18C1269.95 -18 1328.93 41.2936 1328.93 114.766C1328.93 188.239 1286.33 263 1213.16 263" stroke="#006283" stroke-width="8"/>
<path d="M1328.93 -18C1385.72 -18 1444.69 41.2936 1444.69 114.766C1444.69 188.239 1402.1 263 1328.93 263" stroke="#006283" stroke-width="9"/>
<path d="M1444.69 -18C1501.49 -18 1560.46 41.2936 1560.46 114.766C1560.46 188.239 1517.87 263 1444.69 263" stroke="#006283" stroke-width="10"/>
<path d="M1560.46 -18C1617.25 -18 1676.23 41.2936 1676.23 114.766C1676.23 188.239 1633.64 263 1560.46 263" stroke="#006283" stroke-width="11"/>
<path d="M1676.23 -18C1733.02 -18 1792 41.2936 1792 114.766C1792 188.239 1749.41 263 1676.23 263" stroke="#006283" stroke-width="12"/>
<rect x="-3" y="3" width="268.833" height="183" rx="91.5" transform="matrix(-1 0 0 1 921.972 28)" stroke="#006283" stroke-width="6"/>
<path d="M693.611 -18C636.819 -18 577.843 41.2936 577.843 114.766C577.843 188.239 620.437 263 693.611 263" stroke="#006283" stroke-width="7"/>
<path d="M577.843 -18C521.05 -18 462.074 41.2936 462.074 114.766C462.074 188.239 504.668 263 577.843 263" stroke="#006283" stroke-width="8"/>
<path d="M462.074 -18C405.282 -18 346.305 41.2936 346.305 114.766C346.305 188.239 388.9 263 462.074 263" stroke="#006283" stroke-width="9"/>
<path d="M346.306 -18C289.514 -18 230.537 41.2936 230.537 114.766C230.537 188.239 273.131 263 346.306 263" stroke="#006283" stroke-width="10"/>
<path d="M230.537 -18C173.745 -18 114.769 41.2936 114.769 114.766C114.769 188.239 157.363 263 230.537 263" stroke="#006283" stroke-width="11"/>
<path d="M114.769 -18C57.9765 -18 -0.999949 41.2936 -0.999949 114.766C-0.999949 188.239 41.5941 263 114.769 263" stroke="#006283" stroke-width="12"/>
</g>
<g filter="url(#filter0_ddddii_108_598)">
<g filter="url(#filter1_d_108_598)">
<path d="M977.23 149V91.6H993.138L1016.1 129.074H1007.73L1030.04 91.6H1045.95L1046.11 149H1028.48L1028.32 118.168H1031.1L1015.85 143.834H1007.32L991.416 118.168H994.86V149H977.23ZM1061.53 149L1086.63 91.6H1105.65L1130.74 149H1110.73L1092.2 100.784H1099.75L1081.21 149H1061.53ZM1076.46 138.996L1081.38 125.056H1107.78L1112.7 138.996H1076.46ZM1146.13 149V91.6H1165.48V149H1146.13ZM1187.1 149V91.6H1206.45V133.994H1232.36V149H1187.1Z" fill="url(#paint0_linear_108_598)"/>
</g>
<g filter="url(#filter2_d_108_598)">
<path d="M547.073 150.312C542.481 150.312 538.217 149.601 534.281 148.18C530.4 146.704 527.01 144.627 524.113 141.948C521.27 139.269 519.056 136.099 517.471 132.436C515.886 128.773 515.093 124.728 515.093 120.3C515.093 115.872 515.886 111.827 517.471 108.164C519.056 104.501 521.27 101.331 524.113 98.652C527.01 95.9733 530.4 93.9233 534.281 92.502C538.217 91.026 542.481 90.288 547.073 90.288C552.704 90.288 557.678 91.272 561.997 93.24C566.37 95.208 569.978 98.0507 572.821 101.768L560.603 112.674C558.908 110.542 557.022 108.902 554.945 107.754C552.922 106.551 550.626 105.95 548.057 105.95C546.034 105.95 544.203 106.278 542.563 106.934C540.923 107.59 539.502 108.547 538.299 109.804C537.151 111.061 536.249 112.592 535.593 114.396C534.937 116.145 534.609 118.113 534.609 120.3C534.609 122.487 534.937 124.482 535.593 126.286C536.249 128.035 537.151 129.539 538.299 130.796C539.502 132.053 540.923 133.01 542.563 133.666C544.203 134.322 546.034 134.65 548.057 134.65C550.626 134.65 552.922 134.076 554.945 132.928C557.022 131.725 558.908 130.058 560.603 127.926L572.821 138.832C569.978 142.495 566.37 145.337 561.997 147.36C557.678 149.328 552.704 150.312 547.073 150.312ZM620.556 91.6H639.908V149H620.556V91.6ZM602.68 149H583.328V91.6H602.68V149ZM621.868 127.844H601.368V111.936H621.868V127.844ZM647.921 149L673.013 91.6H692.037L717.129 149H697.121L678.589 100.784H686.133L667.601 149H647.921ZM662.845 138.996L667.765 125.056H694.169L699.089 138.996H662.845ZM725.137 149V91.6H744.489V149H725.137ZM758.725 149V91.6H774.633L803.825 126.532H796.445V91.6H815.305V149H799.397L770.205 114.068H777.585V149H758.725Z" fill="url(#paint1_linear_108_598)"/>
</g>
</g>
<defs>
<filter id="filter0_ddddii_108_598" x="495.093" y="70.288" width="757.27" height="100.024" filterUnits="userSpaceOnUse" color-interpolation-filters="sRGB">
<feFlood flood-opacity="0" result="BackgroundImageFix"/>
<feColorMatrix in="SourceAlpha" type="matrix" values="0 0 0 0 0 0 0 0 0 0 0 0 0 0 0 0 0 0 127 0" result="hardAlpha"/>
<feOffset dx="-2" dy="-2"/>
<feGaussianBlur stdDeviation="2.5"/>
<feComposite in2="hardAlpha" operator="out"/>
<feColorMatrix type="matrix" values="0 0 0 0 1 0 0 0 0 1 0 0 0 0 1 0 0 0 0.1 0"/>
<feBlend mode="normal" in2="BackgroundImageFix" result="effect1_dropShadow_108_598"/>
<feColorMatrix in="SourceAlpha" type="matrix" values="0 0 0 0 0 0 0 0 0 0 0 0 0 0 0 0 0 0 127 0" result="hardAlpha"/>
<feOffset dx="2" dy="2"/>
<feGaussianBlur stdDeviation="2.5"/>
<feComposite in2="hardAlpha" operator="out"/>
<feColorMatrix type="matrix" values="0 0 0 0 0 0 0 0 0 0 0 0 0 0 0 0 0 0 0.5 0"/>
<feBlend mode="normal" in2="effect1_dropShadow_108_598" result="effect2_dropShadow_108_598"/>
<feColorMatrix in="SourceAlpha" type="matrix" values="0 0 0 0 0 0 0 0 0 0 0 0 0 0 0 0 0 0 127 0" result="hardAlpha"/>
<feOffset/>
<feGaussianBlur stdDeviation="10"/>
<feComposite in2="hardAlpha" operator="out"/>
<feColorMatrix type="matrix" values="0 0 0 0 0.0627451 0 0 0 0 0.105882 0 0 0 0 0.172549 0 0 0 1 0"/>
<feBlend mode="normal" in2="effect2_dropShadow_108_598" result="effect3_dropShadow_108_598"/>
<feColorMatrix in="SourceAlpha" type="matrix" values="0 0 0 0 0 0 0 0 0 0 0 0 0 0 0 0 0 0 127 0" result="hardAlpha"/>
<feOffset dx="10" dy="10"/>
<feGaussianBlur stdDeviation="2.5"/>
<feComposite in2="hardAlpha" operator="out"/>
<feColorMatrix type="matrix" values="0 0 0 0 0 0 0 0 0 0 0 0 0 0 0 0 0 0 0.2 0"/>
<feBlend mode="normal" in2="effect3_dropShadow_108_598" result="effect4_dropShadow_108_598"/>
<feBlend mode="normal" in="SourceGraphic" in2="effect4_dropShadow_108_598" result="shape"/>
<feColorMatrix in="SourceAlpha" type="matrix" values="0 0 0 0 0 0 0 0 0 0 0 0 0 0 0 0 0 0 127 0" result="hardAlpha"/>
<feOffset dx="-2" dy="-2"/>
<feGaussianBlur stdDeviation="2.5"/>
<feComposite in2="hardAlpha" operator="arithmetic" k2="-1" k3="1"/>
<feColorMatrix type="matrix" values="0 0 0 0 0 0 0 0 0 0 0 0 0 0 0 0 0 0 0.5 0"/>
<feBlend mode="normal" in2="shape" result="effect5_innerShadow_108_598"/>
<feColorMatrix in="SourceAlpha" type="matrix" values="0 0 0 0 0 0 0 0 0 0 0 0 0 0 0 0 0 0 127 0" result="hardAlpha"/>
<feOffset dx="2" dy="2"/>
<feGaussianBlur stdDeviation="2.5"/>
<feComposite in2="hardAlpha" operator="arithmetic" k2="-1" k3="1"/>
<feColorMatrix type="matrix" values="0 0 0 0 1 0 0 0 0 1 0 0 0 0 1 0 0 0 0.1 0"/>
<feBlend mode="normal" in2="effect5_innerShadow_108_598" result="effect6_innerShadow_108_598"/>
</filter>
<filter id="filter1_d_108_598" x="967.23" y="81.6" width="275.133" height="77.4" filterUnits="userSpaceOnUse" color-interpolation-filters="sRGB">
<feFlood flood-opacity="0" result="BackgroundImageFix"/>
<feColorMatrix in="SourceAlpha" type="matrix" values="0 0 0 0 0 0 0 0 0 0 0 0 0 0 0 0 0 0 127 0" result="hardAlpha"/>
<feOffset/>
<feGaussianBlur stdDeviation="5"/>
<feComposite in2="hardAlpha" operator="out"/>
<feColorMatrix type="matrix" values="0 0 0 0 0.0470588 0 0 0 0 0.0823529 0 0 0 0 0.133333 0 0 0 1 0"/>
<feBlend mode="normal" in2="BackgroundImageFix" result="effect1_dropShadow_108_598"/>
<feBlend mode="normal" in="SourceGraphic" in2="effect1_dropShadow_108_598" result="shape"/>
</filter>
<filter id="filter2_d_108_598" x="505.093" y="80.288" width="320.212" height="80.024" filterUnits="userSpaceOnUse" color-interpolation-filters="sRGB">
<feFlood flood-opacity="0" result="BackgroundImageFix"/>
<feColorMatrix in="SourceAlpha" type="matrix" values="0 0 0 0 0 0 0 0 0 0 0 0 0 0 0 0 0 0 127 0" result="hardAlpha"/>
<feOffset/>
<feGaussianBlur stdDeviation="5"/>
<feComposite in2="hardAlpha" operator="out"/>
<feColorMatrix type="matrix" values="0 0 0 0 0.0470588 0 0 0 0 0.0823529 0 0 0 0 0.133333 0 0 0 1 0"/>
<feBlend mode="normal" in2="BackgroundImageFix" result="effect1_dropShadow_108_598"/>
<feBlend mode="normal" in="SourceGraphic" in2="effect1_dropShadow_108_598" result="shape"/>
</filter>
<linearGradient id="paint0_linear_108_598" x1="1042.37" y1="-87.1245" x2="1291.98" y2="41.2953" gradientUnits="userSpaceOnUse">
<stop stop-color="#C5351D"/>
<stop offset="1" stop-color="#AB210A"/>
</linearGradient>
<linearGradient id="paint1_linear_108_598" x1="608.368" y1="-87.1245" x2="857.981" y2="41.2953" gradientUnits="userSpaceOnUse">
<stop stop-color="#C5351D"/>
<stop offset="1" stop-color="#AB210A"/>
</linearGradient>
<clipPath id="clip0_108_598">
<rect width="1792" height="244" fill="white"/>
</clipPath>
</defs>
</svg>
