<svg width="1920" height="258" viewBox="0 0 1920 258" fill="none" xmlns="http://www.w3.org/2000/svg">
<g opacity="0.75" clip-path="url(#clip0_11_54)">
<rect x="-3" y="3" width="286" height="215.024" rx="107.512" transform="matrix(-1 0 0 1 1015 18.9882)" stroke="#006283" stroke-width="6"/>
<path d="M749 -11C688.66 -11 626 48.2936 626 121.766C626 195.239 671.255 270 749 270" stroke="#006283" stroke-width="7"/>
<path d="M626 -11C565.66 -11 503 48.2936 503 121.766C503 195.239 548.255 270 626 270" stroke="#006283" stroke-width="8"/>
<path d="M503 -11C442.66 -11 380 48.2936 380 121.766C380 195.239 425.255 270 503 270" stroke="#006283" stroke-width="9"/>
<path d="M380 -11C319.66 -11 257 48.2936 257 121.766C257 195.239 302.255 270 380 270" stroke="#006283" stroke-width="10"/>
<path d="M257 -11C196.66 -11 134 48.2936 134 121.766C134 195.239 179.255 270 257 270" stroke="#006283" stroke-width="11"/>
<path d="M134 -11C73.6604 -11 11 48.2936 11 121.766C11 195.239 56.2547 270 134 270" stroke="#006283" stroke-width="12"/>
<rect x="905" y="21.9882" width="286" height="215.024" rx="107.512" stroke="#006283" stroke-width="6"/>
<path d="M1174 -11C1234.34 -11 1297 48.2936 1297 121.766C1297 195.239 1251.75 270 1174 270" stroke="#006283" stroke-width="7"/>
<path d="M1297 -11C1357.34 -11 1420 48.2936 1420 121.766C1420 195.239 1374.75 270 1297 270" stroke="#006283" stroke-width="8"/>
<path d="M1420 -11C1480.34 -11 1543 48.2936 1543 121.766C1543 195.239 1497.75 270 1420 270" stroke="#006283" stroke-width="9"/>
<path d="M1543 -11C1603.34 -11 1666 48.2936 1666 121.766C1666 195.239 1620.75 270 1543 270" stroke="#006283" stroke-width="10"/>
<path d="M1666 -11C1726.34 -11 1789 48.2936 1789 121.766C1789 195.239 1743.75 270 1666 270" stroke="#006283" stroke-width="11"/>
<path d="M1789 -11C1849.34 -11 1912 48.2936 1912 121.766C1912 195.239 1866.75 270 1789 270" stroke="#006283" stroke-width="12"/>
</g>
<g filter="url(#filter0_d_11_54)">
<path d="M581.178 160.312C576.586 160.312 572.322 159.601 568.386 158.18C564.504 156.704 561.115 154.627 558.218 151.948C555.375 149.269 553.161 146.099 551.576 142.436C549.99 138.773 549.198 134.728 549.198 130.3C549.198 125.872 549.99 121.827 551.576 118.164C553.161 114.501 555.375 111.331 558.218 108.652C561.115 105.973 564.504 103.923 568.386 102.502C572.322 101.026 576.586 100.288 581.178 100.288C586.808 100.288 591.783 101.272 596.102 103.24C600.475 105.208 604.083 108.051 606.926 111.768L594.708 122.674C593.013 120.542 591.127 118.902 589.05 117.754C587.027 116.551 584.731 115.95 582.162 115.95C580.139 115.95 578.308 116.278 576.668 116.934C575.028 117.59 573.606 118.547 572.404 119.804C571.256 121.061 570.354 122.592 569.698 124.396C569.042 126.145 568.714 128.113 568.714 130.3C568.714 132.487 569.042 134.482 569.698 136.286C570.354 138.035 571.256 139.539 572.404 140.796C573.606 142.053 575.028 143.01 576.668 143.666C578.308 144.322 580.139 144.65 582.162 144.65C584.731 144.65 587.027 144.076 589.05 142.928C591.127 141.725 593.013 140.058 594.708 137.926L606.926 148.832C604.083 152.495 600.475 155.337 596.102 157.36C591.783 159.328 586.808 160.312 581.178 160.312ZM657.941 101.6H677.293V159H657.941V101.6ZM640.065 159H620.713V101.6H640.065V159ZM659.253 137.844H638.753V121.936H659.253V137.844ZM688.586 159L713.678 101.6H732.702L757.794 159H737.786L719.254 110.784H726.798L708.266 159H688.586ZM703.51 148.996L708.43 135.056H734.834L739.754 148.996H703.51ZM769.082 159V101.6H788.434V159H769.082ZM805.95 159V101.6H821.858L851.05 136.532H843.67V101.6H862.53V159H846.622L817.43 124.068H824.81V159H805.95Z" fill="#C5351D"/>
</g>
<g filter="url(#filter1_d_11_54)">
<path d="M1079.43 159V101.6H1095.34L1118.3 139.074H1109.94L1132.24 101.6H1148.15L1148.31 159H1130.68L1130.52 128.168H1133.31L1118.06 153.834H1109.53L1093.62 128.168H1097.06V159H1079.43ZM1163.74 159L1188.83 101.6H1207.86L1232.95 159H1212.94L1194.41 110.784H1201.95L1183.42 159H1163.74ZM1178.66 148.996L1183.58 135.056H1209.99L1214.91 148.996H1178.66ZM1248.34 159V101.6H1267.69V159H1248.34ZM1289.3 159V101.6H1308.66V143.994H1334.57V159H1289.3Z" fill="#C5351D"/>
</g>
<defs>
<filter id="filter0_d_11_54" x="539.198" y="90.288" width="333.332" height="80.024" filterUnits="userSpaceOnUse" color-interpolation-filters="sRGB">
<feFlood flood-opacity="0" result="BackgroundImageFix"/>
<feColorMatrix in="SourceAlpha" type="matrix" values="0 0 0 0 0 0 0 0 0 0 0 0 0 0 0 0 0 0 127 0" result="hardAlpha"/>
<feOffset/>
<feGaussianBlur stdDeviation="5"/>
<feComposite in2="hardAlpha" operator="out"/>
<feColorMatrix type="matrix" values="0 0 0 0 0.0470588 0 0 0 0 0.0823529 0 0 0 0 0.133333 0 0 0 1 0"/>
<feBlend mode="normal" in2="BackgroundImageFix" result="effect1_dropShadow_11_54"/>
<feBlend mode="normal" in="SourceGraphic" in2="effect1_dropShadow_11_54" result="shape"/>
</filter>
<filter id="filter1_d_11_54" x="1069.43" y="91.6" width="275.133" height="77.4" filterUnits="userSpaceOnUse" color-interpolation-filters="sRGB">
<feFlood flood-opacity="0" result="BackgroundImageFix"/>
<feColorMatrix in="SourceAlpha" type="matrix" values="0 0 0 0 0 0 0 0 0 0 0 0 0 0 0 0 0 0 127 0" result="hardAlpha"/>
<feOffset/>
<feGaussianBlur stdDeviation="5"/>
<feComposite in2="hardAlpha" operator="out"/>
<feColorMatrix type="matrix" values="0 0 0 0 0.0470588 0 0 0 0 0.0823529 0 0 0 0 0.133333 0 0 0 1 0"/>
<feBlend mode="normal" in2="BackgroundImageFix" result="effect1_dropShadow_11_54"/>
<feBlend mode="normal" in="SourceGraphic" in2="effect1_dropShadow_11_54" result="shape"/>
</filter>
<clipPath id="clip0_11_54">
<rect width="1920" height="257.344" fill="white"/>
</clipPath>
</defs>
</svg>
