<svg width="1920" height="257" viewBox="0 0 1920 257" fill="none" xmlns="http://www.w3.org/2000/svg">
<g opacity="0.75" clip-path="url(#clip0_11_54)">
<rect x="928" y="38" width="286" height="183" rx="91.5" stroke="#006283" stroke-width="6"/>
<path d="M1174 -11C1234.34 -11 1297 48.2936 1297 121.766C1297 195.239 1251.75 270 1174 270" stroke="#006283" stroke-width="7"/>
<path d="M1297 -11C1357.34 -11 1420 48.2936 1420 121.766C1420 195.239 1374.75 270 1297 270" stroke="#006283" stroke-width="8"/>
<path d="M1420 -11C1480.34 -11 1543 48.2936 1543 121.766C1543 195.239 1497.75 270 1420 270" stroke="#006283" stroke-width="9"/>
<path d="M1543 -11C1603.34 -11 1666 48.2936 1666 121.766C1666 195.239 1620.75 270 1543 270" stroke="#006283" stroke-width="10"/>
<path d="M1666 -11C1726.34 -11 1789 48.2936 1789 121.766C1789 195.239 1743.75 270 1666 270" stroke="#006283" stroke-width="11"/>
<path d="M1789 -11C1849.34 -11 1912 48.2936 1912 121.766C1912 195.239 1866.75 270 1789 270" stroke="#006283" stroke-width="12"/>
<rect x="-3" y="3" width="286" height="183" rx="91.5" transform="matrix(-1 0 0 1 988 35)" stroke="#006283" stroke-width="6"/>
<path d="M745 -11C684.66 -11 622 48.2936 622 121.766C622 195.239 667.255 270 745 270" stroke="#006283" stroke-width="7"/>
<path d="M622 -11C561.66 -11 499 48.2936 499 121.766C499 195.239 544.255 270 622 270" stroke="#006283" stroke-width="8"/>
<path d="M499 -11C438.66 -11 376 48.2936 376 121.766C376 195.239 421.255 270 499 270" stroke="#006283" stroke-width="9"/>
<path d="M376 -11C315.66 -11 253 48.2936 253 121.766C253 195.239 298.255 270 376 270" stroke="#006283" stroke-width="10"/>
<path d="M253 -11C192.66 -11 130 48.2936 130 121.766C130 195.239 175.255 270 253 270" stroke="#006283" stroke-width="11"/>
<path d="M130 -11C69.6604 -11 7 48.2936 7 121.766C7 195.239 52.2547 270 130 270" stroke="#006283" stroke-width="12"/>
</g>
<g filter="url(#filter0_d_11_54)">
<path d="M613.533 159.312C608.941 159.312 604.677 158.601 600.741 157.18C596.86 155.704 593.47 153.627 590.573 150.948C587.73 148.269 585.516 145.099 583.931 141.436C582.346 137.773 581.553 133.728 581.553 129.3C581.553 124.872 582.346 120.827 583.931 117.164C585.516 113.501 587.73 110.331 590.573 107.652C593.47 104.973 596.86 102.923 600.741 101.502C604.677 100.026 608.941 99.288 613.533 99.288C619.164 99.288 624.138 100.272 628.457 102.24C632.83 104.208 636.438 107.051 639.281 110.768L627.063 121.674C625.368 119.542 623.482 117.902 621.405 116.754C619.382 115.551 617.086 114.95 614.517 114.95C612.494 114.95 610.663 115.278 609.023 115.934C607.383 116.59 605.962 117.547 604.759 118.804C603.611 120.061 602.709 121.592 602.053 123.396C601.397 125.145 601.069 127.113 601.069 129.3C601.069 131.487 601.397 133.482 602.053 135.286C602.709 137.035 603.611 138.539 604.759 139.796C605.962 141.053 607.383 142.01 609.023 142.666C610.663 143.322 612.494 143.65 614.517 143.65C617.086 143.65 619.382 143.076 621.405 141.928C623.482 140.725 625.368 139.058 627.063 136.926L639.281 147.832C636.438 151.495 632.83 154.337 628.457 156.36C624.138 158.328 619.164 159.312 613.533 159.312ZM687.016 100.6H706.368V158H687.016V100.6ZM669.14 158H649.788V100.6H669.14V158ZM688.328 136.844H667.828V120.936H688.328V136.844ZM714.381 158L739.473 100.6H758.497L783.589 158H763.581L745.049 109.784H752.593L734.061 158H714.381ZM729.305 147.996L734.225 134.056H760.629L765.549 147.996H729.305ZM791.597 158V100.6H810.949V158H791.597ZM825.185 158V100.6H841.093L870.285 135.532H862.905V100.6H881.765V158H865.857L836.665 123.068H844.045V158H825.185Z" fill="#C5351D"/>
</g>
<g filter="url(#filter1_d_11_54)">
<path d="M1041.23 158V100.6H1057.14L1080.1 138.074H1071.73L1094.04 100.6H1109.95L1110.11 158H1092.48L1092.32 127.168H1095.1L1079.85 152.834H1071.32L1055.42 127.168H1058.86V158H1041.23ZM1125.53 158L1150.63 100.6H1169.65L1194.74 158H1174.73L1156.2 109.784H1163.75L1145.21 158H1125.53ZM1140.46 147.996L1145.38 134.056H1171.78L1176.7 147.996H1140.46ZM1210.13 158V100.6H1229.48V158H1210.13ZM1251.1 158V100.6H1270.45V142.994H1296.36V158H1251.1Z" fill="#C5351D"/>
</g>
<defs>
<filter id="filter0_d_11_54" x="571.553" y="89.288" width="320.212" height="80.024" filterUnits="userSpaceOnUse" color-interpolation-filters="sRGB">
<feFlood flood-opacity="0" result="BackgroundImageFix"/>
<feColorMatrix in="SourceAlpha" type="matrix" values="0 0 0 0 0 0 0 0 0 0 0 0 0 0 0 0 0 0 127 0" result="hardAlpha"/>
<feOffset/>
<feGaussianBlur stdDeviation="5"/>
<feComposite in2="hardAlpha" operator="out"/>
<feColorMatrix type="matrix" values="0 0 0 0 0.0470588 0 0 0 0 0.0823529 0 0 0 0 0.133333 0 0 0 1 0"/>
<feBlend mode="normal" in2="BackgroundImageFix" result="effect1_dropShadow_11_54"/>
<feBlend mode="normal" in="SourceGraphic" in2="effect1_dropShadow_11_54" result="shape"/>
</filter>
<filter id="filter1_d_11_54" x="1031.23" y="90.6" width="275.133" height="77.4" filterUnits="userSpaceOnUse" color-interpolation-filters="sRGB">
<feFlood flood-opacity="0" result="BackgroundImageFix"/>
<feColorMatrix in="SourceAlpha" type="matrix" values="0 0 0 0 0 0 0 0 0 0 0 0 0 0 0 0 0 0 127 0" result="hardAlpha"/>
<feOffset/>
<feGaussianBlur stdDeviation="5"/>
<feComposite in2="hardAlpha" operator="out"/>
<feColorMatrix type="matrix" values="0 0 0 0 0.0470588 0 0 0 0 0.0823529 0 0 0 0 0.133333 0 0 0 1 0"/>
<feBlend mode="normal" in2="BackgroundImageFix" result="effect1_dropShadow_11_54"/>
<feBlend mode="normal" in="SourceGraphic" in2="effect1_dropShadow_11_54" result="shape"/>
</filter>
<clipPath id="clip0_11_54">
<rect width="1920" height="257" fill="white"/>
</clipPath>
</defs>
</svg>
